<svg xmlns="http://www.w3.org/2000/svg" id="Layer_1" data-name="Layer 1" viewBox="152.71 429.6 774.58 267"><defs><style>.cls-1{fill:#002beb;}</style></defs><path class="cls-1" d="M874.48824,495.45257a20.61467,20.61467,0,0,0-32.785,24.16686c-.0024.01081-.00854.01922-.01095.0301l-2.27169,10.54738a1.74014,1.74014,0,0,0,2.23431,2.02291l10.17457-3.27544a20.549,20.549,0,0,0,8.17949,1.61732,20.56728,20.56728,0,0,0,14.47925-35.10913Zm-4.15719,11.66674a10.43029,10.43029,0,0,1-10.68328,10.131,10.31936,10.31936,0,0,1-9.95376-10.313v-.05318a2.32788,2.32788,0,0,1,3.78047-1.7635,10.31767,10.31767,0,0,0,13.01927.04735,2.36612,2.36612,0,0,1,3.83865,1.82539C870.33206,507.03526,870.33172,507.07729,870.33105,507.11931Z"/><path class="cls-1" d="M885.93664,510.05985a20.56275,20.56275,0,0,0,20.50185,20.50185,20.549,20.549,0,0,0,8.17949-1.61732l10.17457,3.27544a1.74014,1.74014,0,0,0,2.23431-2.02291l-2.27169-10.54738c-.00241-.01088-.00855-.01929-.01095-.0301a20.5946,20.5946,0,1,0-38.80758-9.55958Zm10.17844-3.06652a2.36611,2.36611,0,0,1,3.83865-1.82539,10.31767,10.31767,0,0,0,13.01927-.04735,2.32788,2.32788,0,0,1,3.78047,1.7635v.05318a10.31936,10.31936,0,0,1-9.95376,10.313,10.43029,10.43029,0,0,1-10.68328-10.131C896.11575,507.07729,896.11542,507.03526,896.11508,506.99333Z"/><path class="cls-1" d="M298.48131,560.503v2.17984q0,30.08473-21.36483,51.52165-21.36482,21.44011-51.59427,21.43745-30.08473,0-51.449-21.43745-21.475-21.54586-21.36425-51.83223A72.73394,72.73394,0,0,1,174.11422,511.047q21.35108-21.323,51.408-21.32328a69.86147,69.86147,0,0,1,31.683,7.26686V450.24271a20.638,20.638,0,0,1,20.638-20.638h0a20.638,20.638,0,0,1,20.638,20.638Zm-72.9591,33.86395a31.76111,31.76111,0,1,0-22.38159-9.30252A30.44361,30.44361,0,0,0,225.52221,594.36691Z"/><path class="cls-1" d="M458.63367,489.57845q30.08473,0,51.52165,21.43692,21.43531,21.4393,21.43745,51.52218,0,30.23212-21.43745,51.6669-21.44011,21.44011-51.52165,21.43745-30.23212,0-51.59428-21.43745-21.36482-21.43531-21.36482-51.6669,0-30.08474,21.36482-51.52218Q428.40262,489.57925,458.63367,489.57845Zm0,104.78846a31.75925,31.75925,0,1,0-22.38159-9.30252A30.51029,30.51029,0,0,0,458.63367,594.36691Z"/><path class="cls-1" d="M609.71138,489.72743q30.08474,0,51.52165,21.36429,21.4353,21.36563,21.43744,51.59481,0,30.08474-21.43744,51.449-21.44013,21.36483-51.52165,21.36482a71.6055,71.6055,0,0,1-31.683-7.1216v47.58792a20.638,20.638,0,0,1-20.638,20.638h0a20.638,20.638,0,0,1-20.638-20.638V563.505a74.15568,74.15568,0,0,1,21.99-53.032Q579.9213,489.72769,609.71138,489.72743Zm0,104.64213a31.75743,31.75743,0,1,0-22.38159-9.30145A30.50927,30.50927,0,0,0,609.71138,594.36956Z"/><path class="cls-1" d="M760.78908,489.57845q30.08473,0,51.52165,21.36429,21.43532,21.36563,21.43745,51.59481,0,30.08473-21.43745,51.449-21.44011,21.36483-51.52165,21.36483a71.60553,71.60553,0,0,1-31.683-7.12161v47.58792a20.638,20.638,0,0,1-20.638,20.638h0a20.638,20.638,0,0,1-20.638-20.638V563.356a74.15574,74.15574,0,0,1,21.99-53.032Q730.999,489.57871,760.78908,489.57845Zm0,104.64214a31.75745,31.75745,0,1,0-22.38158-9.30145A30.50932,30.50932,0,0,0,760.78908,594.22059Z"/><path class="cls-1" d="M880.66631,556.41491v58.589a20.638,20.638,0,0,1-20.638,20.638h0a20.638,20.638,0,0,1-20.638-20.638v-58.589a20.638,20.638,0,0,1,20.638-20.638h0A20.638,20.638,0,0,1,880.66631,556.41491Z"/><path class="cls-1" d="M927.14007,556.85066v58.15323a20.638,20.638,0,0,1-20.638,20.638h0a20.638,20.638,0,0,1-20.638-20.638V556.85066a20.638,20.638,0,0,1,20.638-20.638h0A20.638,20.638,0,0,1,927.14007,556.85066Z"/><path class="cls-1" d="M403.39078,507.47959a84.4151,84.4151,0,0,1,9.609-8.31454,70.69979,70.69979,0,0,0-36.38068-9.58659q-30.13818,0-51.53991,21.40221-21.40232,21.40283-21.40261,51.54068V615.0078a20.60172,20.60172,0,0,0,20.60172,20.60173h0A20.60173,20.60173,0,0,0,344.88,615.0078V563.83152h.14555v-.58244a1.60359,1.60359,0,0,1-.14555-.72773,31.81432,31.81432,0,0,1,31.739-31.73984,31.7839,31.7839,0,0,1,9.81747,1.49546A78.19548,78.19548,0,0,1,403.39078,507.47959Z"/><path class="cls-1" d="M747.34882,658.53606a12.49764,12.49764,0,0,1,8.9493,3.58545,13.05163,13.05163,0,0,1,4.039,9.24236,13.02864,13.02864,0,0,1-13.14755,13.15034,13.05248,13.05248,0,0,1-9.24424-4.03808,12.49937,12.49937,0,0,1-3.58633-8.9509v-.2845a.22907.22907,0,0,0,.0258-.10322h-.0258V651.058a3.67437,3.67437,0,0,1,3.67437-3.67437h0a3.67437,3.67437,0,0,1,3.67437,3.67437v8.7716A12.54442,12.54442,0,0,1,747.34882,658.53606Zm0,18.63025a5.65421,5.65421,0,1,0-3.985-1.65607A5.43033,5.43033,0,0,0,747.34882,677.16631Z"/><path class="cls-1" d="M788.43267,671.13751v.38772a12.52116,12.52116,0,0,1-3.74627,9.11557,13.01333,13.01333,0,0,1-9.2475,3.87424,12.38489,12.38489,0,0,1-8.88376-3.53178,13.07783,13.07783,0,0,1-4.07566-8.78515h-.0258V662.18463a3.67437,3.67437,0,0,1,3.67437-3.67437h0a3.67437,3.67437,0,0,1,3.67437,3.67437v9.13417h.0258a.198.198,0,0,1-.0258.07741v.129a5.64075,5.64075,0,0,0,11.28149,0v-9.31479a3.67438,3.67438,0,0,1,3.67437-3.67438h0a3.67438,3.67438,0,0,1,3.67437,3.67438Z"/><path class="cls-1" d="M818.65321,655.68972a4.152,4.152,0,1,1,2.95022-1.21608A3.98758,3.98758,0,0,1,818.65321,655.68972Zm3.6747,6.49491v18.65605a3.67437,3.67437,0,0,1-3.67437,3.67437h0a3.67438,3.67438,0,0,1-3.67438-3.67437V662.18463a3.67438,3.67438,0,0,1,3.67438-3.67437h0A3.67437,3.67437,0,0,1,822.32791,662.18463Z"/><path class="cls-1" d="M837.43345,658.4838a13.031,13.031,0,0,1,12.98916,12.98982,1.45215,1.45215,0,0,1-.0258.2845v.10388h.0258v8.92708a3.67437,3.67437,0,0,1-3.67437,3.67437h0a3.67437,3.67437,0,0,1-3.67437-3.67437v-9.10837h-.0258a.10513.10513,0,0,0,.0258-.07741v-.12968a5.64075,5.64075,0,0,0-11.28149,0v9.34126a3.67437,3.67437,0,0,1-3.67437,3.67437h0a3.67437,3.67437,0,0,1-3.67437-3.67437V670.80074h.0258a13.07762,13.07762,0,0,1,4.07566-8.78449A12.38612,12.38612,0,0,1,837.43345,658.4838Z"/><path class="cls-1" d="M865.36661,658.51113a13.02925,13.02925,0,0,1,13.1507,12.9883,13.02472,13.02472,0,0,1-.20643,2.32894H860.40446a5.476,5.476,0,0,0,5.12368,3.33794,5.375,5.375,0,0,0,2.68752-.68386,3.80345,3.80345,0,0,1,1.86244-.53222h.36086a3.62836,3.62836,0,0,1,2.00267,6.65588,12.402,12.402,0,0,1-6.85889,1.90886,12.89665,12.89665,0,0,1-9.109-3.68569,12.99516,12.99516,0,0,1-.35031-18.27878A13.05254,13.05254,0,0,1,865.36661,658.51113Zm-4.62538,10.01294h9.57382a5.63159,5.63159,0,0,0-9.57382,0Z"/><path class="cls-1" d="M812.59859,664.25892a1.80058,1.80058,0,0,1-1.58187,2.66068h-3.97536a2.40967,2.40967,0,0,1-1.75618-.835,3.48556,3.48556,0,0,0-1.73-.92427,8.91647,8.91647,0,0,0-2.87281-.25936,7.65841,7.65841,0,0,0-2.56118.62127,3.89117,3.89117,0,0,0-.67288.42675,1.54323,1.54323,0,0,0-.46578.608.85726.85726,0,0,0-.02581.20709c.01654.06947.03441.12968.05161.18129a1.52314,1.52314,0,0,0,.68545.56967,4.04246,4.04246,0,0,0,.8674.25869c.06815.01721.129.03441.18063.05161q1.55318.36225,3.51922.64708.18061.0258.36257.05161a37.749,37.749,0,0,1,3.77792.72448,11.63432,11.63432,0,0,1,2.43216.88,10.15857,10.15857,0,0,1,1.3451.85351,6.29815,6.29815,0,0,1,1.29415,1.32,5.91326,5.91326,0,0,1,.88,1.81088,7.06188,7.06188,0,0,1,.2587,1.83736,8.13686,8.13686,0,0,1-.59547,3.13084,7.98685,7.98685,0,0,1-1.81088,2.63925,9.55683,9.55683,0,0,1-2.38056,1.65607,13.23649,13.23649,0,0,1-4.94239,1.29415,16.24857,16.24857,0,0,1-4.89079-.38838,14.18171,14.18171,0,0,1-2.458-.8277,10.3268,10.3268,0,0,1-2.43216-1.52705,8.6571,8.6571,0,0,1-2.07025-2.58764c-.27656-.5174.07706.17089-.31307-.75509a1.81958,1.81958,0,0,1,1.49231-2.60865l3.765-.00006a2.72007,2.72007,0,0,1,2.011.94331,4.01908,4.01908,0,0,0,1.63533,1.04959,8.60192,8.60192,0,0,0,2.82053.3103,7.446,7.446,0,0,0,2.56185-.59547,2.91438,2.91438,0,0,0,1.03479-.77609.94243.94243,0,0,0,.20709-.8019.44831.44831,0,0,0-.10388-.28516.56652.56652,0,0,0-.21966-.16806c-.09527-.04234-.18526-.08138-.27193-.11645a.238.238,0,0,0-.10321-.0258,3.79275,3.79275,0,0,0-.7503-.23289,34.7336,34.7336,0,0,0-3.46761-.67288c-.15482-.01655-.31031-.03441-.46579-.05161q-1.708-.23323-3.674-.69869a14.28371,14.28371,0,0,1-2.38056-.80189,8.07,8.07,0,0,1-2.61344-1.91477,6.71871,6.71871,0,0,1-1.03546-1.65606,7.36693,7.36693,0,0,1-.46579-1.83736q-.0258-.43965-.0258-.85416a6.35839,6.35839,0,0,1,.05227-.8019,7.67908,7.67908,0,0,1,.38771-1.63026,7.296,7.296,0,0,1,1.76-2.79474,8.82779,8.82779,0,0,1,2.40635-1.70767,13.08488,13.08488,0,0,1,4.89013-1.3451,16.96858,16.96858,0,0,1,4.83918.2845,15.41255,15.41255,0,0,1,2.458.75029,11.275,11.275,0,0,1,2.48377,1.39737,8.42022,8.42022,0,0,1,2.19992,2.48377Z"/><path class="cls-1" d="M902.68323,664.25892a1.80058,1.80058,0,0,1-1.58187,2.66068H897.126a2.40966,2.40966,0,0,1-1.75618-.835,3.48556,3.48556,0,0,0-1.73-.92427,8.91647,8.91647,0,0,0-2.87281-.25936,7.65835,7.65835,0,0,0-2.56118.62127,3.89079,3.89079,0,0,0-.67288.42675,1.54334,1.54334,0,0,0-.46579.608.85774.85774,0,0,0-.0258.20709c.01654.06947.03441.12968.05161.18129a1.52314,1.52314,0,0,0,.68545.56967,4.04229,4.04229,0,0,0,.8674.25869c.06815.01721.129.03441.18062.05161q1.55319.36225,3.51923.64708.18061.0258.36257.05161a37.749,37.749,0,0,1,3.77792.72448,11.63432,11.63432,0,0,1,2.43216.88,10.15921,10.15921,0,0,1,1.3451.85351,6.29815,6.29815,0,0,1,1.29415,1.32,5.91326,5.91326,0,0,1,.88,1.81088,7.06188,7.06188,0,0,1,.2587,1.83736,8.137,8.137,0,0,1-.59547,3.13084,7.98673,7.98673,0,0,1-1.81089,2.63925,9.55679,9.55679,0,0,1-2.38055,1.65607,13.23649,13.23649,0,0,1-4.94239,1.29415,16.24857,16.24857,0,0,1-4.89079-.38838,14.18171,14.18171,0,0,1-2.458-.8277,10.3268,10.3268,0,0,1-2.43216-1.52705,8.6571,8.6571,0,0,1-2.07025-2.58764c-.27656-.5174.07706.17089-.31308-.75509A1.81958,1.81958,0,0,1,882.295,675.976l3.765-.00006a2.72007,2.72007,0,0,1,2.011.94331,4.01908,4.01908,0,0,0,1.63533,1.04959,8.60192,8.60192,0,0,0,2.82053.3103,7.44585,7.44585,0,0,0,2.56184-.59547,2.91442,2.91442,0,0,0,1.0348-.77609.94246.94246,0,0,0,.20709-.8019.44831.44831,0,0,0-.10388-.28516.56659.56659,0,0,0-.21966-.16806c-.09528-.04234-.18526-.08138-.27193-.11645a.238.238,0,0,0-.10322-.0258,3.79245,3.79245,0,0,0-.75029-.23289,34.7336,34.7336,0,0,0-3.46761-.67288c-.15482-.01655-.31031-.03441-.46579-.05161q-1.708-.23323-3.674-.69869a14.2834,14.2834,0,0,1-2.38056-.80189,8.06982,8.06982,0,0,1-2.61344-1.91477,6.71871,6.71871,0,0,1-1.03546-1.65606,7.3665,7.3665,0,0,1-.46579-1.83736q-.0258-.43965-.0258-.85416a6.35839,6.35839,0,0,1,.05227-.8019,7.67848,7.67848,0,0,1,.38771-1.63026,7.296,7.296,0,0,1,1.76-2.79474,8.82779,8.82779,0,0,1,2.40635-1.70767,13.08483,13.08483,0,0,1,4.89013-1.3451,16.96851,16.96851,0,0,1,4.83917.2845,15.41235,15.41235,0,0,1,2.458.75029,11.2747,11.2747,0,0,1,2.48376,1.39737,8.42011,8.42011,0,0,1,2.19993,2.48377Z"/><path class="cls-1" d="M927.07039,664.25892a1.80058,1.80058,0,0,1-1.58186,2.66068h-3.97537a2.40967,2.40967,0,0,1-1.75618-.835,3.48549,3.48549,0,0,0-1.73-.92427,8.91647,8.91647,0,0,0-2.87281-.25936,7.65829,7.65829,0,0,0-2.56118.62127,3.89041,3.89041,0,0,0-.67288.42675,1.54334,1.54334,0,0,0-.46579.608.85774.85774,0,0,0-.0258.20709c.01654.06947.0344.12968.0516.18129a1.52316,1.52316,0,0,0,.68546.56967,4.04229,4.04229,0,0,0,.8674.25869c.06814.01721.129.03441.18062.05161q1.55319.36225,3.51922.64708.18063.0258.36258.05161a37.749,37.749,0,0,1,3.77792.72448,11.63432,11.63432,0,0,1,2.43216.88,10.15921,10.15921,0,0,1,1.3451.85351,6.29815,6.29815,0,0,1,1.29415,1.32,5.91326,5.91326,0,0,1,.88,1.81088,7.06231,7.06231,0,0,1,.2587,1.83736,8.137,8.137,0,0,1-.59547,3.13084,7.987,7.987,0,0,1-1.81089,2.63925,9.55679,9.55679,0,0,1-2.38055,1.65607,13.23654,13.23654,0,0,1-4.94239,1.29415,16.24854,16.24854,0,0,1-4.89079-.38838,14.18171,14.18171,0,0,1-2.458-.8277,10.32639,10.32639,0,0,1-2.43216-1.52705,8.65694,8.65694,0,0,1-2.07025-2.58764c-.27656-.5174.07706.17089-.31308-.75509a1.81958,1.81958,0,0,1,1.49232-2.60865l3.765-.00006a2.72007,2.72007,0,0,1,2.011.94331,4.019,4.019,0,0,0,1.63532,1.04959,8.602,8.602,0,0,0,2.82054.3103,7.4459,7.4459,0,0,0,2.56184-.59547,2.91438,2.91438,0,0,0,1.03479-.77609.94243.94243,0,0,0,.20709-.8019.4483.4483,0,0,0-.10387-.28516.56659.56659,0,0,0-.21966-.16806c-.09528-.04234-.18526-.08138-.27193-.11645a.238.238,0,0,0-.10322-.0258,3.79266,3.79266,0,0,0-.75029-.23289,34.73328,34.73328,0,0,0-3.46762-.67288c-.15482-.01655-.3103-.03441-.46578-.05161q-1.708-.23323-3.674-.69869a14.28331,14.28331,0,0,1-2.38055-.80189,8.07,8.07,0,0,1-2.61345-1.91477,6.719,6.719,0,0,1-1.03545-1.65606,7.3665,7.3665,0,0,1-.46579-1.83736q-.0258-.43965-.02581-.85416a6.36026,6.36026,0,0,1,.05227-.8019,7.6785,7.6785,0,0,1,.38772-1.63026,7.29611,7.29611,0,0,1,1.75994-2.79474,8.82768,8.82768,0,0,1,2.40636-1.70767,13.08483,13.08483,0,0,1,4.89012-1.3451,16.96856,16.96856,0,0,1,4.83918.2845,15.41224,15.41224,0,0,1,2.458.75029,11.27453,11.27453,0,0,1,2.48377,1.39737,8.42025,8.42025,0,0,1,2.19993,2.48377Z"/></svg>